HIERARCHY
ROOT Hips
{
	OFFSET 0.000000 0.000000 0.000000
	CHANNELS 6 Xposition Yposition Zposition Zrotation Yrotation Xrotation 
	JOINT LeftUpLeg_virtual
	{
		OFFSET 0.000000 0.000000 0.000000
		CHANNELS 3 Zrotation Yrotation Xrotation
		JOINT LeftUpLeg
		{
			OFFSET 10.205400 -3.823500 0.155100
			CHANNELS 3 Zrotation Yrotation Xrotation
			JOINT LeftLeg
			{
				OFFSET 0.708757 -12.982077 0.567790
				CHANNELS 3 Zrotation Yrotation Xrotation
				JOINT LeftFoot
				{
					OFFSET -0.708756 -10.717838 -2.184338
					CHANNELS 3 Zrotation Yrotation Xrotation
					JOINT LeftToeBase
					{
						OFFSET 0.108149 -7.191104 7.560241
						CHANNELS 3 Zrotation Yrotation Xrotation
						End Site
						{
							OFFSET 0.000000 0.000000 0.000000
						}
					}
				}
			}
		}
	}
	JOINT RightUpLeg_virtual
	{
		OFFSET 0.000000 0.000000 0.000000
		CHANNELS 3 Zrotation Yrotation Xrotation
		JOINT RightUpLeg
		{
			OFFSET -10.205400 -3.823500 0.005500
			CHANNELS 3 Zrotation Yrotation Xrotation
			JOINT RightLeg
			{
				OFFSET -0.708756 -12.982134 0.610632
				CHANNELS 3 Zrotation Yrotation Xrotation
				JOINT RightFoot
				{
					OFFSET 0.708754 -10.717769 -1.945823
					CHANNELS 3 Zrotation Yrotation Xrotation
					JOINT RightToeBase
					{
						OFFSET -0.108140 -7.191069 7.372968
						CHANNELS 3 Zrotation Yrotation Xrotation
						End Site
						{
							OFFSET 0.000000 0.000000 0.000000
						}
					}
				}
			}
		}
	}
	JOINT Spine_virtual
	{
		OFFSET 0.000000 0.000000 0.000000
		CHANNELS 3 Zrotation Yrotation Xrotation
		JOINT Spine
		{
			OFFSET 0.000000 6.876099 0.125700
			CHANNELS 3 Zrotation Yrotation Xrotation
			JOINT Spine1
			{
				OFFSET 0.000000 8.022060 0.146608
				CHANNELS 3 Zrotation Yrotation Xrotation
				JOINT Spine2
				{
					OFFSET 0.000000 9.168068 0.167552
					CHANNELS 3 Zrotation Yrotation Xrotation
					JOINT Neck_virtual
					{
						OFFSET 0.000000 0.000000 0.000000
						CHANNELS 3 Zrotation Yrotation Xrotation
						JOINT Neck
						{
							OFFSET 0.000000 10.314075 0.188496
							CHANNELS 3 Zrotation Yrotation Xrotation
							JOINT Head
							{
								OFFSET 0.000000 7.643700 -2.377400
								CHANNELS 3 Zrotation Yrotation Xrotation
								End Site
								{
									OFFSET 0.000000 0.000000 0.000000
								}
							}
						}
					}
					JOINT LeftShoulder_virtual
					{
						OFFSET 0.000000 0.000000 0.000000
						CHANNELS 3 Zrotation Yrotation Xrotation
						JOINT LeftShoulder
						{
							OFFSET 4.392200 8.824978 0.174984
							CHANNELS 3 Zrotation Yrotation Xrotation
							JOINT LeftArm
							{
								OFFSET 8.771219 -2.981674 -0.026999
								CHANNELS 3 Zrotation Yrotation Xrotation
								JOINT LeftForeArm
								{
									OFFSET 8.512804 0.000000 -0.000000
									CHANNELS 3 Zrotation Yrotation Xrotation
									JOINT LeftHand
									{
										OFFSET 18.484802 0.000000 -0.000000
										CHANNELS 3 Zrotation Yrotation Xrotation
										End Site
										{
											OFFSET 0.000000 0.000000 0.000000
										}
									}
								}
							}
						}
					}
					JOINT RightShoulder_virtual
					{
						OFFSET 0.000000 0.000000 0.000000
						CHANNELS 3 Zrotation Yrotation Xrotation
						JOINT RightShoulder
						{
							OFFSET -4.392200 8.824993 0.141379
							CHANNELS 3 Zrotation Yrotation Xrotation
							JOINT RightArm
							{
								OFFSET -8.771282 -2.981682 -0.094208
								CHANNELS 3 Zrotation Yrotation Xrotation
								JOINT RightForeArm
								{
									OFFSET -8.494598 0.000000 0.000000
									CHANNELS 3 Zrotation Yrotation Xrotation
									JOINT RightHand
									{
										OFFSET -18.483803 0.000000 0.000001
										CHANNELS 3 Zrotation Yrotation Xrotation
										End Site
										{
											OFFSET 0.000000 0.000000 0.000000
										}
									}
								}
							}
						}
					}
				}
			}
		}
	}
}
MOTION
Frames: 7
Frame Time: 0.033333
13.374484 34.401367 -60.683075 179.677511 -40.162257 -179.748968 -0.050372 -3.054920 7.772346 -5.024882 -6.838561 -32.258611 17.234589 12.198074 21.914604 -12.436705 5.204259 11.388217 0.000000 0.000000 0.000000 3.732081 -1.804311 6.606349 2.581554 14.150098 -22.438505 -7.769102 4.022262 15.956924 9.807542 7.442651 5.512801 0.000000 0.000000 0.000000 2.511926 0.050387 -7.517766 -2.976521 -0.691401 -7.684354 -0.908271 -2.195207 14.434823 0.003967 0.016968 -0.020473 -1.016116 -0.424903 16.460211 3.280941 -5.652461 15.451927 0.000000 0.000000 0.000000 0.503312 0.302998 13.455528 -15.121363 -13.306939 4.186985 -53.579484 22.967384 1.452203 -3.337659 -34.632706 0.998337 0.000000 0.000000 0.000000 -3.264532 1.467126 12.992802 26.142660 5.996692 4.081146 48.266440 -14.451155 11.335099 -6.297888 27.513962 -3.975611 0.000000 0.000000 0.000000 
13.365086 34.402851 -60.799290 179.555278 -40.033272 -179.851599 0.145820 -3.146228 7.827202 -5.327807 -6.822473 -32.067926 17.353764 12.560160 22.679522 -12.369422 5.200681 11.394049 0.000000 0.000000 0.000000 3.794539 -1.696209 6.527779 2.482237 14.181976 -22.254124 -7.463868 4.961442 15.833898 10.495252 7.740085 5.991008 0.000000 0.000000 0.000000 2.462005 -0.089380 -7.454051 -2.975504 -0.585041 -7.648401 -0.899330 -2.136695 14.412701 0.057334 0.046698 -0.034660 -1.022405 -0.357326 16.409736 3.330601 -5.650591 15.423638 0.000000 0.000000 0.000000 0.525605 0.400247 13.409029 -15.059404 -13.332825 4.170210 -53.605152 23.012446 1.574128 -3.367055 -34.794541 1.038079 0.000000 0.000000 0.000000 -3.317990 1.517773 12.907102 26.129853 6.070939 4.080997 48.323141 -14.192553 11.356017 -6.316661 27.733324 -3.988566 0.000000 0.000000 0.000000 
13.356659 34.401604 -60.942459 179.331316 -40.090878 -179.739556 0.074694 -3.452548 7.967586 -5.262521 -6.996160 -31.957769 17.382638 12.111390 22.767517 -12.188963 5.185058 11.150965 0.000000 0.000000 0.000000 3.643048 -1.866932 6.578617 2.676273 13.907974 -22.101585 -7.185426 4.931468 16.084776 10.475444 7.638849 5.728995 0.000000 0.000000 0.000000 2.309471 -0.167261 -7.482082 -2.975755 -0.544762 -7.681351 -0.891149 -2.152156 14.371684 0.088271 0.053306 -0.064495 -0.966289 -0.430002 16.392271 3.326272 -5.730589 15.464849 0.000000 0.000000 0.000000 0.594975 0.429593 13.385384 -15.082133 -13.241541 4.237230 -53.348340 22.952656 2.051422 -3.356997 -34.878395 1.151021 0.000000 0.000000 0.000000 -3.295182 1.519599 12.889291 26.021093 6.203553 4.155905 48.523334 -14.012004 11.213276 -6.343080 27.925302 -4.067999 0.000000 0.000000 0.000000 
13.341775 34.386211 -61.076176 179.580987 -40.179363 -179.832529 0.349016 -3.786361 8.151207 -5.429053 -6.907893 -31.954237 17.260136 10.934461 22.611828 -11.592736 4.991071 11.016032 0.000000 0.000000 0.000000 3.774583 -1.925270 6.630675 2.938295 13.673538 -21.989155 -6.960902 5.040252 16.224464 10.276439 7.471588 5.302328 0.000000 0.000000 0.000000 2.490814 -0.290242 -7.499201 -2.896774 -0.452844 -7.791644 -0.818211 -2.129053 14.286028 0.042520 0.052852 -0.036957 -0.913881 -0.361699 16.302275 3.482477 -5.744231 15.590470 0.000000 0.000000 0.000000 0.616239 0.417265 13.292614 -15.075199 -13.119105 4.280399 -53.127257 22.845755 2.743499 -3.339961 -34.871787 1.276892 0.000000 0.000000 0.000000 -3.330032 1.504539 12.748949 25.985400 6.401397 4.299596 48.787741 -14.012782 11.030806 -6.378582 28.135875 -4.139107 0.000000 0.000000 0.000000 
13.332767 34.366478 -61.210793 179.518436 -40.437903 -179.751468 0.383782 -3.982171 8.348788 -5.278758 -7.196541 -32.054727 17.233184 10.634385 22.756375 -11.782409 5.191511 10.782204 0.000000 0.000000 0.000000 3.750147 -2.134601 6.708476 3.131113 13.390047 -21.981857 -6.683452 5.057591 16.508371 10.141403 7.354831 4.908697 0.000000 0.000000 0.000000 2.500344 -0.438678 -7.443567 -2.868771 -0.420440 -7.931425 -0.840140 -2.167087 14.199320 0.048280 0.018509 -0.028358 -0.910346 -0.512623 16.202944 3.611750 -5.935873 15.795912 0.000000 0.000000 0.000000 0.639372 0.559098 13.165854 -15.141915 -12.891745 4.263355 -52.793264 22.655019 3.570709 -3.422836 -34.800651 1.553675 0.000000 0.000000 0.000000 -3.334786 1.588552 12.629729 25.903002 6.692783 4.425988 49.159050 -14.274432 10.729091 -6.429522 28.278950 -4.213540 0.000000 0.000000 0.000000 
13.328650 34.363205 -61.343418 179.456554 -40.728056 -179.724776 0.421567 -4.040337 8.559073 -4.884133 -7.735433 -32.141702 17.350057 11.331433 23.040627 -11.887505 4.778414 10.598376 0.000000 0.000000 0.000000 3.811077 -2.287669 6.805538 3.290210 12.936650 -21.968863 -6.387719 5.181072 16.842806 9.968416 7.198808 4.489408 0.000000 0.000000 0.000000 2.536775 -0.694525 -7.343862 -2.811651 -0.179263 -8.115079 -0.767596 -1.932396 14.158090 0.038556 0.041900 -0.026331 -0.902056 -0.304571 16.042557 3.662428 -5.904126 15.967399 0.000000 0.000000 0.000000 0.591013 0.481334 13.009706 -15.230012 -12.810924 4.383853 -52.418253 22.210197 4.571363 -3.283758 -34.657527 1.630466 0.000000 0.000000 0.000000 -3.404311 1.600188 12.463795 25.893344 6.865994 4.711348 49.495092 -14.727841 10.565559 -6.527296 28.298730 -4.280408 0.000000 0.000000 0.000000 
13.320930 34.375118 -61.475052 179.542970 -41.116602 -179.818076 0.476280 -4.080066 8.743547 -4.428385 -8.281869 -32.120150 17.197870 11.715937 23.017850 -11.916393 4.590618 10.501161 0.000000 0.000000 0.000000 3.951033 -2.388927 6.975517 3.445252 12.341492 -21.944109 -6.113624 5.308406 17.094389 9.788153 6.970843 4.213014 0.000000 0.000000 0.000000 2.678914 -0.609498 -7.223862 -2.729870 -0.160447 -8.319581 -0.910976 -2.025480 14.097891 0.020371 0.082328 -0.020140 -1.002328 -0.188952 15.898597 3.600931 -5.980509 16.231641 0.000000 0.000000 0.000000 0.533851 0.542512 12.847562 -15.264583 -12.595846 4.431494 -52.011559 21.762354 5.523064 -3.165606 -34.438613 1.733327 0.000000 0.000000 0.000000 -3.421121 1.587897 12.356748 25.888138 7.240885 4.908938 49.657244 -15.212537 10.486908 -6.630969 28.279881 -4.268335 0.000000 0.000000 0.000000 
